<svg xmlns="http://www.w3.org/2000/svg" xmlns:xlink="http://www.w3.org/1999/xlink" version="1.1" id="Layer_1" x="0px" y="0px" width="299px" height="354px" viewBox="0 0 299 354" enable-background="new 0 0 299 354" xml:space="preserve">
<g>
	<defs>
		<rect id="SVGID_1_" width="299" height="300"/>
	</defs>
    <clipPath id="SVGID_2_">
		<use xlink:href="#SVGID_1_" overflow="visible"/>
	</clipPath>




    <path clip-path="url(#SVGID_2_)" fill="#FFFFFF" d="M112.279,55.464c0,0-7.315,3.804-12.679,9.071   c-5.365,5.266-12.095,13.264-12.095,13.264s-4.779-4.876-4.876-8.388c-0.098-3.511,0-9.558,2.438-12.777   c2.438-3.218,5.852-6.729,10.241-7.022c4.389-0.293,6.535-0.683,9.656,0.878C108.085,52.05,109.743,52.928,112.279,55.464"/>
    <path clip-path="url(#SVGID_2_)" fill="#FFFFFF" d="M206.204,73.411c0,0,4.974,4.877,6.729,9.558   c1.757,4.682,4.78,7.51,5.756,11.899s2.634,7.413,2.634,7.413s4.485-0.098,6.437-3.024c1.951-2.926,5.169-8.29,4.584-12.972   c-0.585-4.681,1.365-6.242-4.584-10.826c-5.951-4.584-8.095-5.559-12.387-5.072C211.081,70.875,206.204,73.411,206.204,73.411"/>
    <path clip-path="url(#SVGID_2_)" fill="#FFFFFF" d="M113.206,143.684c3.313,0,5.998-2.686,5.998-5.998   c0-3.313-2.685-5.999-5.998-5.999s-5.998,2.686-5.998,5.999C107.208,140.998,109.893,143.684,113.206,143.684"/>
    <path clip-path="url(#SVGID_2_)" fill="#FFFFFF" d="M170.88,153.681c3.313,0,5.998-2.686,5.998-5.998   c0-3.313-2.685-5.999-5.998-5.999s-5.998,2.686-5.998,5.999C164.882,150.995,167.566,153.681,170.88,153.681"/>
    <path clip-path="url(#SVGID_2_)" fill="#FFFFFF" d="M131.188,201.801c21.389,4.157,40.92-3.743,43.622-17.646   c2.703-13.904-12.446-28.546-33.835-32.706c-21.389-4.156-40.919,3.745-43.622,17.649   C94.649,183.001,109.798,197.643,131.188,201.801"/>
    <path clip-path="url(#SVGID_2_)" fill="#A97C51" d="M220.918,103.478c-2.768-10.994-7.958-21.022-14.975-29.486   c2.702-1.88,5.981-2.991,9.521-2.991c9.227,0,16.703,7.479,16.703,16.703C232.168,95.016,227.462,101.216,220.918,103.478    M174.996,184.955c-2.791,13.926-22.551,21.708-44.135,17.384c-21.583-4.327-36.817-19.124-34.026-33.051   c2.792-13.926,22.551-21.709,44.134-17.382C162.554,156.232,177.788,171.03,174.996,184.955 M87.138,78.212   c-3.106-3.033-5.042-7.261-5.042-11.946c0-9.225,7.478-16.703,16.703-16.703c5.389,0,10.17,2.563,13.223,6.525   C102.16,61.519,93.662,69.109,87.138,78.212 M117.222,137.856c0,2.172-1.76,3.934-3.934,3.934c-2.172,0-3.934-1.762-3.934-3.934   c0-2.173,1.762-3.935,3.934-3.935C115.462,133.921,117.222,135.683,117.222,137.856 M170.513,143.347   c2.172,0,3.935,1.762,3.935,3.934c0,2.174-1.763,3.935-3.935,3.935s-3.933-1.761-3.933-3.935   C166.58,145.109,168.341,143.347,170.513,143.347 M245.131,89.699c0-18.588-15.068-33.655-33.653-33.655   c-6.861,0-13.234,2.065-18.556,5.59c0.001,0,0.001,0.001,0.002,0.002c-12.498-9.306-27.988-14.815-44.767-14.815   c-6.597,0-12.992,0.858-19.088,2.457c0.002,0,0.005-0.001,0.008-0.002c-6.167-7.718-15.643-12.677-26.29-12.677   c-18.586,0-33.654,15.067-33.654,33.654c0,9.099,3.626,17.338,9.491,23.395h0.001c-3.537,8.711-5.503,18.228-5.503,28.209   c0,14.243,3.985,27.548,10.876,38.893l-0.276-0.02c-15.119,10.215-25.059,27.513-25.059,47.132   c0,31.39,25.447,56.838,56.837,56.838h0.75c16.531,0,29.939-13.303,30.144-29.786l0.092,0.001   c1.479,5.488,2.749,8.258,8.463,13.887c5.716,5.629,15.592,7.79,25.482,8.126c24.88-2.668,44.257-23.726,44.257-49.314   c0-15.518-7.124-29.373-18.28-38.469c10.489-12.907,16.786-29.36,16.786-47.287c0-0.215-0.015-0.428-0.017-0.642v0.004   C235.987,116.462,245.131,104.164,245.131,89.699"/>

    <path clip-path="url(#SVGID_2_)" fill="#5F3A17" d="M113.288,141.79c-2.172,0-3.934-1.761-3.934-3.935   c0-2.172,1.762-3.934,3.934-3.934c2.172,0,3.934,1.762,3.934,3.934C117.222,140.029,115.46,141.79,113.288,141.79 M113.656,129.405   c-5.537,0-10.026,4.489-10.026,10.026s4.489,10.026,10.026,10.026s10.025-4.489,10.025-10.026S119.193,129.405,113.656,129.405"/>
    <path clip-path="url(#SVGID_2_)" fill="#5F3A17" d="M61.754,227.798c8.294,21.802,29.4,37.339,54.075,37.339h0.748   c15.515,0,28.383-11.408,30.746-26.27c1.747,4.019,4.326,7.584,7.506,10.514c0.026,0.028,0.038,0.063,0.066,0.089   c0.097,0.09,0.203,0.164,0.301,0.252c0.511,0.454,1.032,0.888,1.572,1.309c0.237,0.188,0.478,0.371,0.72,0.55   c0.53,0.391,1.07,0.761,1.624,1.118c0.277,0.177,0.555,0.35,0.834,0.519c0.543,0.323,1.095,0.632,1.656,0.924   c0.311,0.162,0.625,0.316,0.941,0.467c0.553,0.266,1.111,0.515,1.682,0.746c0.345,0.142,0.692,0.27,1.042,0.396   c0.56,0.204,1.119,0.398,1.692,0.571c0.384,0.116,0.773,0.215,1.163,0.315c0.55,0.143,1.101,0.28,1.664,0.394   c0.44,0.089,0.889,0.154,1.336,0.225c0.521,0.08,1.04,0.164,1.568,0.218c0.534,0.058,1.076,0.08,1.616,0.108   c0.369,0.019,0.729,0.066,1.101,0.073l0.5,0.005v-0.003c0.011,0,0.02,0.001,0.028,0.001h0.002c0,0,1.125-0.036,2.35-0.086   c0.071-0.004,0.146-0.004,0.219-0.008c0.878-0.036,3.269-0.317,3.269-0.317c18.787-2.37,34.392-15.072,40.934-32.221   c0.72-1.607,1.246-3.683,1.246-3.683c1.338-4.538,2.066-9.335,2.066-14.3c0-14.93-6.505-28.917-17.86-38.566   c10.354-13.103,16.359-29.579,16.365-47.163c13.146-5.204,21.938-18.033,21.938-32.185c0-19.111-15.549-34.66-34.66-34.66   c-6.596,0-12.988,1.879-18.544,5.41c-12.57-9.191-28.046-14.633-44.775-14.633c-6.457,0-12.725,0.815-18.715,2.337   c-6.62-7.984-16.293-12.559-26.656-12.559c-19.111,0-34.66,15.55-34.66,34.661c0,8.812,3.329,17.162,9.351,23.61   c-3.446,8.67-5.362,18.109-5.362,27.992c0,13.795,3.637,26.959,10.432,38.484c-15.593,10.829-24.89,28.527-24.89,47.521   c0,4.924,0.621,9.705,1.785,14.271C60.567,224.178,61.754,227.798,61.754,227.798 M154.07,245.744   c-2.96-3.354-5.152-7.381-6.327-11.831c-0.005-2.623-0.368-5.159-0.986-7.593c0.067-11.91,7.311-22.147,17.621-26.604   c0.813-0.476,2.802-0.945,2.802-0.945c0.048-0.082,0.121-0.137,0.221-0.168c0.085-0.024,0.168-0.04,0.251-0.065   c0.675-0.199,1.355-0.376,2.05-0.527c0.336-0.073,0.676-0.129,1.015-0.19c0.552-0.1,1.107-0.188,1.672-0.257   c0.3-0.037,0.601-0.072,0.902-0.101c0.864-0.077,1.734-0.133,2.617-0.133c0.791,0,1.581,0.04,2.367,0.104   c0.102,0.009,0.201,0.018,0.302,0.027c5.826,0.548,11.422,2.871,15.982,6.69c0.032,0.027,1.64,1.402,1.64,1.402   c1.004,0.977,1.951,2.023,2.823,3.155c0.339,0.44,0.972,0.521,1.409,0.183c0.442-0.339,0.523-0.969,0.184-1.41   c-5.113-6.638-12.487-10.795-20.637-11.852c1.76-0.811,3.854-2.072,6.069-4.04c4.563-4.054,7.086-8.551,7.19-8.739   c0.023-0.039,0.025-0.086,0.041-0.127c5.062-3.688,9.645-7.934,13.611-12.688c10.886,9.265,15.71,23.779,16.32,35.018   c0.434,7.989-1.853,22.752-14.196,36.107c-8.549,9.249-21.397,13.064-30.722,14.397c-0.263,0.011-0.517,0.021-0.76,0.03   c-0.569,0.025-1.14,0.049-1.712,0.054c-0.352-0.002-0.699-0.037-1.05-0.05c-0.598-0.023-1.197-0.045-1.786-0.102   c-0.467-0.049-0.926-0.127-1.388-0.196c-0.444-0.068-0.892-0.127-1.328-0.214c-0.552-0.109-1.096-0.248-1.641-0.39   c-0.323-0.085-0.646-0.161-0.966-0.256c-0.63-0.188-1.252-0.402-1.868-0.635c-0.206-0.076-0.413-0.149-0.617-0.229   c-0.709-0.285-1.41-0.598-2.096-0.938c-0.086-0.042-0.174-0.083-0.261-0.127c-2.373-1.208-4.598-2.748-6.612-4.609   C154.698,246.563,154.07,245.744,154.07,245.744 M171.703,193.467c0.118,0.047,0.242,0.081,0.371,0.081   c0.105,0,0.212-0.017,0.316-0.052c5.859-1.939,11.331-4.575,16.396-7.737c-1.069,1.343-2.437,2.875-4.073,4.329   c-5.291,4.702-9.803,4.979-9.844,4.98c-0.284,0.013-0.532,0.142-0.706,0.34c-0.35,0.021-0.7,0.02-1.05,0.052   c-0.326,0.03-0.649,0.07-0.975,0.11c-0.591,0.071-1.18,0.161-1.767,0.27c-0.37,0.067-0.742,0.128-1.108,0.209   c-0.124,0.026-0.248,0.053-0.372,0.082C169.926,195.303,170.856,194.409,171.703,193.467 M135.674,201.48   c-0.294-1.432-0.509-3.203-0.644-5.204l-0.055-0.884c-0.097-1.814-0.162-6.709-0.031-8.541c0.069-1.771,0.182-3.58,0.34-5.39   c0.997,0.033,2.036-0.297,3.001-1.063c2.247-1.853,6.274-4.64,8.939-6.17c2.651-1.51,1.712-3.89-2.41-5.049   c-1.987-0.579-4.632-1.169-7.313-1.659c0.246-1.016,0.519-2.034,0.817-3.045l0.261-0.87c0.437-1.395,0.929-2.758,1.48-4.059   l0.359-0.821c1.004-2.214,2.192-4.2,3.604-5.734c19.443,4.894,32.869,18.467,30.317,31.196   C171.844,196.632,154.956,203.935,135.674,201.48 M130.992,202.755c1.258,0.252,2.507,0.449,3.75,0.622   c0.136,0.118,0.299,0.196,0.482,0.196c0.066,0,0.133-0.01,0.2-0.026c0.051-0.015,0.09-0.045,0.134-0.068   c2.504,0.313,4.976,0.482,7.383,0.482c4.803,0,9.346-0.623,13.468-1.753c-5.893,4.743-10.003,11.58-11.246,19.371   c-4.802-11.037-15.801-18.782-28.586-18.782c-0.418,0-0.831,0.026-1.245,0.043c-0.344-0.6-1.44-2.593-2.03-4.563   c-0.256-0.854-0.347-1.642-0.362-2.288C118.13,199.034,124.257,201.405,130.992,202.755 M137.019,163.605l-0.252,0.87   c-0.263,0.911-0.511,1.839-0.742,2.788c-2.316-0.39-4.576-0.695-6.368-0.83c-4.277-0.362-6.021,1.537-4.076,3.881   c1.947,2.365,4.733,6.388,6.19,8.908c0.548,0.911,1.263,1.547,2.054,1.91c-0.172,1.937-0.292,3.845-0.363,5.694   c-0.236,2.538-0.06,7.043,0.051,8.957l0.059,0.882c0.124,1.743,0.305,3.296,0.54,4.592c-0.905-0.138-1.812-0.292-2.726-0.474   c-6.93-1.39-13.189-3.881-18.38-7.07c-0.116-0.288-0.346-0.525-0.672-0.609c-0.108-0.023-0.211-0.019-0.316-0.012   c-9.933-6.445-15.607-15.506-13.868-24.174c1.279-6.391,6.395-11.645,14.402-14.8c5.019-1.977,10.787-2.977,16.871-2.977   c3.805,0,7.732,0.391,11.677,1.181c0.433,0.088,0.859,0.185,1.287,0.28c-1.189,1.434-2.243,3.192-3.172,5.187   C139.215,157.789,137.559,161.833,137.019,163.605 M213.242,85.47c0.241,0.437,0.48,0.874,0.714,1.316   c0.291,0.548,0.577,1.098,0.854,1.654c0.38,0.765,0.743,1.538,1.098,2.314c0.222,0.49,0.439,0.983,0.651,1.479   c0.363,0.848,0.712,1.7,1.044,2.559c0.166,0.431,0.323,0.865,0.481,1.3c0.275,0.76,0.539,1.525,0.79,2.294   c0.132,0.404,0.268,0.806,0.394,1.214c0.345,1.125,0.668,2.256,0.958,3.395c0.169,0.661,0.318,1.33,0.469,2   c0.129,0.575,0.254,1.152,0.37,1.731c0.105,0.528,0.208,1.056,0.305,1.587c0.448,2.573,0.775,5.18,0.953,7.822   c0.01,0.118,0.017,0.238,0.023,0.356c0.088,1.382,0.143,2.77,0.154,4.167l0.008,0.984c-0.081,17.259-6.097,33.403-16.402,46.171   c-0.05,0.042-0.107,0.073-0.15,0.125c-0.045,0.054-0.063,0.117-0.094,0.176c-8.274,10.147-19.27,18.124-32.158,22.786   c1.255-1.935,2.15-4.047,2.605-6.316c2.808-14.002-11.776-28.856-32.789-33.792c-0.735-1.611-1.99-4.747-3.092-9.174l-0.212-0.882   c-0.874-3.729-1.618-8.292-1.865-13.654l-0.023-0.869c-0.129-3.646-0.031-7.624,0.412-11.931l0.113-0.914   c0.39-3.46,1.013-7.122,1.898-10.966l0.197-0.87c0.102-0.421,0.176-0.825,0.284-1.251c0.938-3.709,1.925-7.146,2.942-10.348   l0.278-0.852c1.223-3.778,2.491-7.218,3.777-10.33l0.339-0.805c2.074-4.917,4.187-9.02,6.229-12.429l0.47-0.789   c2.444-3.971,4.771-6.951,6.797-9.171l0.621-0.672c2.705-2.847,4.798-4.278,5.777-4.867   C187.673,55.411,203.742,68.375,213.242,85.47 M221.938,101.565c-2.71-10.214-7.521-19.692-14.163-27.917   c2.424-1.448,5.174-2.21,8.019-2.21c8.655,0,15.698,7.041,15.698,15.698C231.492,93.449,227.694,99.116,221.938,101.565    M233.502,87.136c0-9.764-7.943-17.71-17.708-17.71c-3.314,0-6.511,0.926-9.312,2.668c-3.396-3.984-7.219-7.665-11.471-10.955   c5.073-3.052,10.849-4.658,16.793-4.658c18.003,0,32.649,14.646,32.649,32.648c0,13.081-7.968,24.98-19.969,30.051   c-0.004-0.129-0.018-0.256-0.021-0.385c-0.036-1.109-0.097-2.21-0.181-3.306c-0.023-0.324-0.046-0.648-0.072-0.971   c-0.087-0.979-0.198-1.949-0.321-2.916c-0.057-0.45-0.108-0.9-0.173-1.348c-0.105-0.723-0.232-1.437-0.358-2.154   c-0.116-0.686-0.229-1.372-0.366-2.052c-0.032-0.153-0.07-0.304-0.103-0.458c-0.143-0.692-0.299-1.379-0.462-2.063   C229.085,100.833,233.502,94.365,233.502,87.136 M80.068,93.043c0.374-0.907,0.776-1.8,1.185-2.687   c0.159-0.347,0.306-0.699,0.472-1.043c0.555-1.156,1.141-2.294,1.754-3.417c0.256-0.467,0.531-0.921,0.796-1.382   c0.392-0.681,0.785-1.362,1.198-2.029c0.32-0.518,0.652-1.024,0.982-1.532c0.394-0.602,0.792-1.198,1.201-1.787   c0.349-0.502,0.703-1.002,1.063-1.496c0.436-0.593,0.883-1.177,1.334-1.758c0.356-0.456,0.707-0.915,1.073-1.362   c0.557-0.684,1.134-1.349,1.715-2.011c0.282-0.321,0.553-0.652,0.839-0.967c0.856-0.943,1.737-1.861,2.64-2.757   c0.332-0.331,0.678-0.646,1.017-0.971c0.616-0.589,1.236-1.175,1.872-1.744c0.397-0.353,0.803-0.698,1.207-1.045   c0.606-0.519,1.219-1.029,1.841-1.528c0.422-0.339,0.848-0.674,1.278-1.005c0.64-0.491,1.291-0.967,1.948-1.436   c0.423-0.304,0.843-0.612,1.273-0.906c0.758-0.519,1.531-1.017,2.307-1.508c0.343-0.216,0.675-0.444,1.021-0.654   c0,0,0.001,0,0.001-0.001c1.081-0.659,2.181-1.287,3.295-1.89c0.483-0.261,0.98-0.502,1.469-0.753   c0.676-0.346,1.353-0.692,2.041-1.019c0.568-0.269,1.144-0.523,1.719-0.777c0.63-0.28,1.261-0.553,1.9-0.814   c0.603-0.247,1.209-0.488,1.82-0.718c0.642-0.244,1.289-0.474,1.939-0.699c0.604-0.209,1.205-0.421,1.814-0.616   c0.762-0.241,1.532-0.46,2.303-0.677c6.396-1.808,13.133-2.796,20.101-2.796c6.21,0,12.241,0.778,18.009,2.225   c-1.288,0.892-3.135,2.379-5.311,4.709l-0.618,0.673c-2.09,2.333-4.454,5.428-6.916,9.516l-0.466,0.789   c-1.963,3.343-3.979,7.315-5.96,12.027l-0.337,0.808c-1.357,3.291-2.693,6.944-3.981,10.974l-0.272,0.852   c-0.984,3.131-1.939,6.479-2.851,10.085c-0.138,0.549-0.241,1.074-0.369,1.616l-0.198,0.87c-0.812,3.576-1.402,7.001-1.787,10.254   l-0.12,0.911c-0.497,4.57-0.61,8.788-0.475,12.646l0.043,0.869c0.26,5.676,1.048,10.528,1.988,14.426l0.222,0.876   c0.902,3.535,1.892,6.257,2.631,8.016c-0.075-0.016-0.148-0.034-0.223-0.049c-10.628-2.131-21.166-1.457-29.679,1.896   c-8.665,3.413-14.219,9.193-15.637,16.275c-0.322,1.606-0.403,3.224-0.285,4.836c-13.829-13.946-21.439-32.35-21.439-52.071   C74.455,111.288,76.458,101.752,80.068,93.043 M110.807,55.233c-0.491,0.281-0.968,0.59-1.452,0.882   c-0.176,0.105-0.35,0.211-0.525,0.319c-0.054,0.033-0.111,0.066-0.166,0.101c-0.125,0.077-0.253,0.151-0.377,0.229   c-0.682,0.427-1.355,0.868-2.024,1.317c-0.205,0.138-0.409,0.279-0.614,0.419c-0.176,0.12-0.354,0.239-0.53,0.361   c-0.096,0.067-0.194,0.13-0.289,0.197c-0.524,0.369-1.038,0.748-1.552,1.129c-0.25,0.184-0.495,0.376-0.741,0.563   c-0.266,0.203-0.534,0.4-0.796,0.605c-0.083,0.065-0.17,0.127-0.252,0.192c-0.376,0.298-0.748,0.602-1.119,0.906   c-0.277,0.228-0.546,0.463-0.82,0.694c-0.389,0.327-0.782,0.647-1.164,0.983c-0.026,0.023-0.055,0.046-0.082,0.068   c-0.258,0.227-0.51,0.46-0.764,0.691c-0.264,0.237-0.519,0.485-0.778,0.727c-0.663,0.617-1.324,1.234-1.965,1.873   c-0.154,0.155-0.302,0.317-0.455,0.472c-1.657,1.683-3.246,3.431-4.742,5.259c-0.044,0.054-0.087,0.112-0.131,0.167   c-0.719,0.884-1.428,1.777-2.106,2.692c-2.544-2.873-3.933-6.515-3.933-10.383C83.43,57.039,90.471,50,99.125,50   C103.629,50,107.825,51.893,110.807,55.233 M99.125,47.988c-9.763,0-17.707,7.945-17.707,17.708c0,4.523,1.702,8.763,4.778,12.054   c-0.373,0.531-0.743,1.062-1.102,1.602c-0.365,0.551-0.719,1.107-1.07,1.669c-0.353,0.561-0.698,1.127-1.036,1.699   c-0.332,0.561-0.659,1.126-0.976,1.697c-0.34,0.609-0.666,1.227-0.99,1.847c-0.283,0.545-0.569,1.087-0.841,1.64   c-0.364,0.743-0.706,1.498-1.046,2.254c-0.166,0.365-0.349,0.721-0.507,1.091c-5.275-5.977-8.163-13.575-8.163-21.564   c0-18.003,14.646-32.649,32.649-32.649c9.449,0,18.298,4.031,24.513,11.114c-0.297,0.084-0.586,0.19-0.882,0.279   c-0.67,0.2-1.334,0.412-1.996,0.631c-0.618,0.203-1.236,0.406-1.847,0.625c-0.644,0.232-1.279,0.48-1.916,0.728   c-0.6,0.234-1.203,0.461-1.796,0.709c-0.688,0.289-1.364,0.601-2.042,0.909c-0.52,0.237-1.048,0.459-1.562,0.707   c-1.01,0.487-2.004,1.002-2.99,1.532C109.218,50.281,104.366,47.988,99.125,47.988 M116.577,263.125h-0.748   c-30.787,0-55.832-25.046-55.832-55.833c0-18.285,8.929-35.327,23.911-45.788c3.328,5.316,7.343,10.263,12.01,14.729   c0.133,0.127,0.294,0.194,0.461,0.235c1.642,6.801,6.926,13.322,14.59,18.31c-0.087,0.91-0.099,2.392,0.407,4.078   c0.476,1.59,1.228,3.152,1.753,4.148c-10.077,1.118-19.06,7.074-23.969,16.124c-0.264,0.488-0.083,1.097,0.404,1.362   c0.487,0.265,1.098,0.084,1.364-0.403c5.11-9.426,14.938-15.278,25.649-15.278c13.509,0,24.868,9.247,28.164,21.734   c0.005,2.624,0.368,5.158,0.986,7.592C145.635,250.136,132.598,263.125,116.577,263.125"/>
    <path clip-path="url(#SVGID_2_)" fill="#5F3A17" d="M170.514,151.216c-2.174,0-3.935-1.761-3.935-3.935   c0-2.173,1.761-3.934,3.935-3.934c2.172,0,3.933,1.761,3.933,3.934C174.446,149.455,172.686,151.216,170.514,151.216    M170.882,138.831c-5.537,0-10.026,4.489-10.026,10.025c0,5.537,4.489,10.027,10.026,10.027c5.536,0,10.022-4.49,10.022-10.027   C180.904,143.32,176.418,138.831,170.882,138.831"/>
    <path clip-path="url(#SVGID_2_)" fill="none" stroke="#5F3A17" stroke-width="2" stroke-linecap="round" d="M157.852,183.721   c-12.902,11.533-32.123,11.693-43.789-5.484"/>
</g>
</svg>
