<?xml version="1.0" encoding="utf-8"?>
<svg version="1.1" id="Layer_1" x="0px" y="0px" width="299px" height="354px" viewBox="0 0 299 354"
     enable-background="new 0 0 299 354" xmlns="http://www.w3.org/2000/svg">
    <g>
        <path stroke="darkblue" stroke-width="1" fill="blue"
              d="M 233.502 87.136 C 233.502 77.372 225.559 69.426 215.794 69.426 C 212.48 69.426 206.599 70.686 204.177 73.3 C 200.781 69.316 197.907 65.735 193.655 62.445 C 198.462 58.71 205.86 56.481 211.804 56.481 C 229.807 56.481 244.453 71.127 244.453 89.129 C 244.453 102.21 234.348 114.968 222.347 120.039 C 222.343 119.91 220.741 104.877 220.578 104.193 C 227.236 101.499 233.502 94.365 233.502 87.136 M 99.125 47.988 C 89.362 47.988 81.418 55.933 81.418 65.696 C 81.418 70.219 84.36 75.933 87.436 79.224 C 87.063 79.755 80.114 92.275 79.956 92.645 C 74.681 86.668 70.465 77.674 70.465 69.685 C 70.465 51.682 85.111 37.036 103.114 37.036 C 112.563 37.036 123.133 42.459 129.348 49.542 C 129.051 49.626 114.616 55.53 113.63 56.06 C 110.252 52.071 104.366 47.988 99.125 47.988"/>
        <path stroke="black" stroke-width="1" fill="#A97C51"
              d=" M80.068,93.043c0.374-0.907,0.776-1.8,1.185-2.687 c0.159-0.347,0.306-0.699,0.472-1.043c0.555-1.156,1.141-2.294,1.754-3.417c0.256-0.467,0.531-0.921,0.796-1.382 c0.392-0.681,0.785-1.362,1.198-2.029c0.32-0.518,0.652-1.024,0.982-1.532c0.394-0.602,0.792-1.198,1.201-1.787 c0.349-0.502,0.703-1.002,1.063-1.496c0.436-0.593,0.883-1.177,1.334-1.758c0.356-0.456,0.707-0.915,1.073-1.362 c0.557-0.684,1.134-1.349,1.715-2.011c0.282-0.321,0.553-0.652,0.839-0.967c0.856-0.943,1.737-1.861,2.64-2.757 c0.332-0.331,0.678-0.646,1.017-0.971c0.616-0.589,1.236-1.175,1.872-1.744c0.397-0.353,0.803-0.698,1.207-1.045 c0.606-0.519,1.219-1.029,1.841-1.528c0.422-0.339,0.848-0.674,1.278-1.005c0.64-0.491,1.291-0.967,1.948-1.436 c0.423-0.304,0.843-0.612,1.273-0.906c0.758-0.519,1.531-1.017,2.307-1.508c0.343-0.216,0.675-0.444,1.021-0.654 c0,0,0.001,0,0.001-0.001c1.081-0.659,2.181-1.287,3.295-1.89c0.483-0.261,0.98-0.502,1.469-0.753 c0.676-0.346,1.353-0.692,2.041-1.019c0.568-0.269,1.144-0.523,1.719-0.777c0.63-0.28,1.261-0.553,1.9-0.814 c0.603-0.247,1.209-0.488,1.82-0.718c0.642-0.244,1.289-0.474,1.939-0.699c0.604-0.209,1.205-0.421,1.814-0.616 c0.762-0.241,1.532-0.46,2.303-0.677c6.396-1.808,13.133-2.796,20.101-2.796c6.21,0,12.241,0.778,18.009,2.225 c-1.288,0.892-3.135,2.379-5.311,4.709l-0.618,0.673c-2.09,2.333-4.454,5.428-6.916,9.516l-0.466,0.789 c-1.963,3.343-3.979,7.315-5.96,12.027l-0.337,0.808c-1.357,3.291-2.693,6.944-3.981,10.974l-0.272,0.852 c-0.984,3.131-1.939,6.479-2.851,10.085c-0.138,0.549-0.241,1.074-0.369,1.616l-0.198,0.87c-0.812,3.576-1.402,7.001-1.787,10.254 l-0.12,0.911c-0.497,4.57-0.61,8.788-0.475,12.646l0.043,0.869c0.26,5.676,1.048,10.528,1.988,14.426l0.222,0.876 c0.902,3.535,1.892,6.257,2.631,8.016c-0.075-0.016-0.148-0.034-0.223-0.049c-10.628-2.131-21.166-1.457-29.679,1.896 c-8.665,3.413-14.219,9.193-15.637,16.275c-0.322,1.606-0.403,3.224-0.285,4.836c-13.829-13.946-21.439-32.35-21.439-52.071 C74.455,111.288,76.458,101.752,80.068,93.043 M213.242,85.47c0.241,0.437,0.48,0.874,0.714,1.316 c0.291,0.548,0.577,1.098,0.854,1.654c0.38,0.765,0.743,1.538,1.098,2.314c0.222,0.49,0.439,0.983,0.651,1.479 c0.363,0.848,0.712,1.7,1.044,2.559c0.166,0.431,0.323,0.865,0.481,1.3c0.275,0.76,0.539,1.525,0.79,2.294 c0.132,0.404,0.268,0.806,0.394,1.214c0.345,1.125,0.668,2.256,0.958,3.395c0.169,0.661,0.318,1.33,0.469,2 c0.129,0.575,0.254,1.152,0.37,1.731c0.105,0.528,0.208,1.056,0.305,1.587c0.448,2.573,0.775,5.18,0.953,7.822 c0.01,0.118,0.017,0.238,0.023,0.356c0.088,1.382,0.143,2.77,0.154,4.167l0.008,0.984c-0.081,17.259-6.097,33.403-16.402,46.171 c-0.05,0.042-0.107,0.073-0.15,0.125c-0.045,0.054-0.063,0.117-0.094,0.176c-8.274,10.147-19.27,18.124-32.158,22.786 c1.255-1.935,2.15-4.047,2.605-6.316c2.808-14.002-11.776-28.856-32.789-33.792c-0.735-1.611-1.99-4.747-3.092-9.174l-0.212-0.882 c-0.874-3.729-1.618-8.292-1.865-13.654l-0.023-0.869c-0.129-3.646-0.031-7.624,0.412-11.931l0.113-0.914 c0.39-3.46,1.013-7.122,1.898-10.966l0.197-0.87c0.102-0.421,0.176-0.825,0.284-1.251c0.938-3.709,1.925-7.146,2.942-10.348 l0.278-0.852c1.223-3.778,2.491-7.218,3.777-10.33l0.339-0.805c2.074-4.917,4.187-9.02,6.229-12.429l0.47-0.789 c2.444-3.971,4.771-6.951,6.797-9.171l0.621-0.672c2.705-2.847,4.798-4.278,5.777-4.867 C187.673,55.411,203.742,68.375,213.242,85.47 "/>
        <path stroke="green" stroke-width="1" fill="red"
              d="M 154.07 245.744 C 151.11 242.39 148.918 238.363 147.743 233.913 C 147.738 231.29 147.375 228.754 146.757 226.32 C 146.824 214.41 154.068 204.173 164.378 199.716 C 165.191 199.24 167.18 198.771 167.18 198.771 C 167.228 198.689 167.301 198.634 167.401 198.603 C 167.486 198.579 167.569 198.563 167.652 198.538 C 168.327 198.339 169.007 198.162 169.702 198.011 C 170.038 197.938 170.378 197.882 170.717 197.821 C 171.269 197.721 171.824 197.633 172.389 197.564 C 172.689 197.527 172.99 197.492 173.291 197.463 C 174.155 197.386 175.025 197.33 175.908 197.33 C 176.699 197.33 177.489 197.37 178.275 197.434 C 178.377 197.443 178.476 197.452 178.577 197.461 C 184.403 198.009 189.999 200.332 194.559 204.151 C 194.591 204.178 196.199 205.553 196.199 205.553 C 197.203 206.53 198.15 207.576 199.022 208.708 C 199.361 209.148 199.994 209.229 200.431 208.891 C 200.873 208.552 200.954 207.922 200.615 207.481 C 195.502 200.843 183.513 190.936 175.363 189.879 C 177.123 189.068 201.559 172.73 205.525 167.976 C 216.411 177.241 222.599 193.814 223.209 205.053 C 223.643 213.042 221.356 227.805 209.013 241.16 C 200.464 250.409 187.616 254.224 178.291 255.557 C 178.028 255.568 177.774 255.578 177.531 255.587 C 176.962 255.612 176.391 255.636 175.819 255.641 C 175.467 255.639 175.12 255.604 174.769 255.591 C 174.171 255.568 173.572 255.546 172.983 255.489 C 172.516 255.44 172.057 255.362 171.595 255.293 C 171.151 255.225 170.703 255.166 170.267 255.079 C 169.715 254.97 169.171 254.831 168.626 254.689 C 168.303 254.604 167.98 254.528 167.66 254.433 C 167.03 254.245 166.408 254.031 165.792 253.798 C 165.586 253.722 165.379 253.649 165.175 253.569 C 164.466 253.284 163.765 252.971 163.079 252.631 C 162.993 252.589 162.905 252.548 162.818 252.504 C 160.445 251.296 158.22 249.756 156.206 247.895 C 154.698 246.563 154.07 245.744 154.07 245.744 M 116.577 263.125 L 115.829 263.125 C 85.042 263.125 59.997 238.079 59.997 207.292 C 59.997 189.007 70.313 170.773 85.295 160.312 C 88.623 165.628 92.686 170.564 97.353 175.03 C 97.486 175.157 103.557 187.967 111.221 192.955 C 110.619 195.1 110.87 197.17 111.376 198.856 C 111.852 200.446 112.604 202.008 113.129 203.004 C 103.052 204.122 94.069 210.078 89.16 219.128 C 88.896 219.616 89.077 220.225 89.564 220.49 C 90.051 220.755 90.662 220.574 90.928 220.087 C 96.038 210.661 105.866 204.809 116.577 204.809 C 130.086 204.809 141.445 214.056 144.741 226.543 C 144.746 229.167 145.109 231.701 145.727 234.135 C 145.635 250.136 132.598 263.125 116.577 263.125"/>
        <path stroke="black" stroke-width="1" fill="white"
              d="M131.188,201.801c21.389,4.157,40.92-3.743,43.622-17.646   c2.703-13.904-12.446-28.546-33.835-32.706c-21.389-4.156-40.919,3.745-43.622,17.649   C94.649,183.001,109.798,197.643,131.188,201.801"/>

        <path stroke="darkblue" stroke-width="1" fill="blue"
              d="
              M 135.284 181.461 C 136.281 181.494 137.248 181.063 138.285 180.398 C 140.729 178.83 144.844 176.021 147.224 174.228 C 149.661 172.393 148.936 170.338 144.814 169.179 C 142.827 168.6 139.774 167.9 137.093 167.41
              C 133.702 166.826 131.434 166.495 129.657 166.227 C 125.446 165.591 123.579 167.967 125.313 170.471 C 127.091 173.04 129.734 176.923 131.503 179.379 C 132.124 180.242 133.034 180.769 133.825 181.132 z
"/>

        <path stroke="black" stroke-width="1" fill="black"
              d="M113.656,129.405 c-5.537,0-10.026,4.489-10.026,10.026 s4.489,10.026,10.026,10.026    s10.025-4.489,10.025-10.026S119.193,129.405,113.656,129.405"/>
        <path stroke="black" stroke-width="1" fill="black"
              d="M170.882,138.831c-5.537,0-10.026,4.489-10.026,10.025c0,5.537,4.489,10.027,10.026,10.027c5.536,0,10.022-4.49,10.022-10.027   C180.904,143.32,176.418,138.831,170.882,138.831"/>
        <path fill="none" stroke="black" stroke-width="1" stroke-linecap="round"
              d="M157.852,183.721   c-12.902,11.533-32.123,11.693-43.789-5.484"/>
    </g>
</svg>