<?xml version="1.0" encoding="utf-8"?>
<svg version="1.1" id="Layer_1" x="0px" y="0px" width="299px" height="300px" viewBox="0 0 299 300" enable-background="new 0 0 299 354" xmlns="http://www.w3.org/2000/svg">
  <g>
      <path fill="none" stroke="#5F3A17" stroke-width="1"   d="M148.697,221.486c-37.853,0.363-117.569,7.519-118.37,7.591c-0.471,0.042-0.934-0.141-1.25-0.491   c-0.316-0.352-0.448-0.831-0.356-1.294c0.154-0.779,15.421-78.254,16.403-114.512C46.104,76.61,28.914,9.574,28.74,8.902   c-0.131-0.509,0.013-1.048,0.379-1.423c0.367-0.375,0.903-0.533,1.414-0.413c0.597,0.139,60.369,13.945,118.201,15.91   c57.757,1.965,121.468-15.715,122.104-15.893c0.488-0.138,1.012-0.018,1.395,0.315c0.381,0.334,0.568,0.838,0.497,1.339   c-0.122,0.86-12.185,86.474-11.693,129.478c0.491,42.948,11.553,88.554,11.665,89.01c0.115,0.472-0.005,0.97-0.322,1.337   c-0.316,0.368-0.793,0.56-1.275,0.514C270.261,228.997,186.531,221.124,148.697,221.486z"/>
    <path stroke="darkblue" stroke-width="1" fill="red" d="M 154.07 245.744 C 151.11 242.39 148.832 238.385 147.743 233.913 C 147.743 233.913 146.807 230.642 146.757 226.32 C 146.62 214.411 154.068 204.173 164.378 199.716 C 165.191 199.24 167.301 198.634 167.401 198.603 C 167.486 198.579 170.378 197.882 170.717 197.821 C 171.269 197.721 172.99 197.492 173.291 197.463 C 174.155 197.386 175.025 197.33 175.908 197.33 C 176.699 197.33 177.489 197.37 178.275 197.434 C 178.377 197.443 178.476 197.452 178.577 197.461 C 184.403 198.009 189.999 200.332 194.559 204.151 C 194.591 204.178 196.199 205.553 196.199 205.553 C 197.203 206.53 198.15 207.576 199.022 208.708 C 199.361 209.148 199.994 209.229 200.431 208.891 C 200.873 208.552 200.999 207.884 200.615 207.481 C 197.885 204.616 195.325 201.944 189.397 198.74 C 186.213 197.019 180.476 195.898 176.651 194.523 C 173.423 193.364 172 191.828 170.137 191.586 C 171.897 190.775 201.559 172.73 205.525 167.976 C 216.411 177.241 222.599 193.814 223.209 205.053 C 223.643 213.042 221.356 227.805 209.013 241.16 C 200.464 250.409 187.616 254.224 178.291 255.557 C 178.028 255.568 173.572 255.546 172.983 255.489 C 172.516 255.44 169.171 254.831 168.626 254.689 C 168.303 254.604 163.765 252.971 163.079 252.631 C 162.993 252.589 162.905 252.548 162.818 252.504 C 160.445 251.296 158.22 249.756 156.206 247.895 C 154.698 246.563 154.07 245.744 154.07 245.744 M 116.577 263.125 L 115.829 263.125 C 85.042 263.125 59.997 238.079 59.997 207.292 C 59.997 189.007 70.313 170.773 85.295 160.312 C 88.623 165.628 92.686 170.564 97.353 175.03 C 97.486 175.157 109.691 188.355 117.355 193.343 C 123.578 194.616 116.892 199.276 114.408 201.126 C 113.479 201.856 112.304 202.385 111.154 202.854 C 109.538 203.511 107.927 204.007 106.723 204.408 C 99.327 206.867 92.998 212.052 89.16 219.128 C 88.896 219.616 89.077 220.225 89.564 220.49 C 90.051 220.755 90.662 220.574 90.928 220.087 C 96.038 210.661 105.866 204.809 116.577 204.809 C 130.086 204.809 141.445 214.056 144.741 226.543 C 145.438 230.437 145.42 230.341 145.727 234.135 C 145.635 250.136 132.598 263.125 116.577 263.125"/>
    <path stroke="darkblue" stroke-width="1" fill="blue" d="M 233.502 87.136 C 233.502 77.372 225.559 69.426 215.794 69.426 C 212.48 69.426 206.599 70.686 204.177 73.3 C 200.781 69.316 197.907 65.735 193.655 62.445 C 198.462 58.71 205.86 56.481 211.804 56.481 C 229.807 56.481 244.453 71.127 244.453 89.129 C 244.453 102.21 234.348 114.968 222.347 120.039 C 222.343 119.91 220.741 104.877 220.578 104.193 C 227.236 101.499 233.502 94.365 233.502 87.136 M 99.125 47.988 C 89.362 47.988 81.418 55.933 81.418 65.696 C 81.418 70.219 84.36 75.933 87.436 79.224 C 87.063 79.755 80.114 92.275 79.956 92.645 C 74.681 86.668 70.465 77.674 70.465 69.685 C 70.465 51.682 85.111 37.036 103.114 37.036 C 112.563 37.036 123.133 42.459 129.348 49.542 C 129.051 49.626 114.616 55.53 113.63 56.06 C 110.252 52.071 104.366 47.988 99.125 47.988"/>
    <path stroke="black" stroke-width="1" fill="#A97C51" d="M 80.068 93.043 C 80.442 92.136 80.844 91.243 81.253 90.356 C 81.412 90.009 81.559 89.657 81.725 89.313 C 82.28 88.157 82.866 87.019 83.479 85.896 C 83.735 85.429 84.01 84.975 84.275 84.514 C 84.667 83.833 85.06 83.152 85.473 82.485 C 85.793 81.967 86.125 81.461 86.455 80.953 C 86.849 80.351 87.247 79.755 87.656 79.166 C 88.005 78.664 88.359 78.164 88.719 77.67 C 89.155 77.077 89.602 76.493 90.053 75.912 C 90.409 75.456 90.76 74.997 91.126 74.55 C 91.683 73.866 92.26 73.201 92.841 72.539 C 93.123 72.218 93.394 71.887 93.68 71.572 C 94.536 70.629 95.417 69.711 96.32 68.815 C 96.652 68.484 96.998 68.169 97.337 67.844 C 97.953 67.255 98.573 66.669 99.209 66.1 C 99.606 65.747 100.012 65.402 100.416 65.055 C 101.022 64.536 101.635 64.026 102.257 63.527 C 102.679 63.188 103.105 62.853 103.535 62.522 C 104.175 62.031 104.826 61.555 105.483 61.086 C 105.906 60.782 106.326 60.474 106.756 60.18 C 107.514 59.661 108.287 59.163 109.063 58.672 C 109.406 58.456 109.738 58.228 110.084 58.018 C 110.084 58.018 110.085 58.018 110.085 58.017 C 111.166 57.358 112.266 56.73 113.38 56.127 C 113.863 55.866 114.36 55.625 114.849 55.374 C 115.525 55.028 116.202 54.682 116.89 54.355 C 117.458 54.086 118.034 53.832 118.609 53.578 C 119.239 53.298 119.87 53.025 120.509 52.764 C 121.112 52.517 121.718 52.276 122.329 52.046 C 122.971 51.802 123.618 51.572 124.268 51.347 C 124.872 51.138 125.473 50.926 126.082 50.731 C 126.844 50.49 127.614 50.271 128.385 50.054 C 134.781 48.246 141.518 47.258 148.486 47.258 C 154.696 47.258 160.727 48.036 166.495 49.483 C 165.207 50.375 163.36 51.862 161.184 54.192 L 160.566 54.865 C 158.476 57.198 156.112 60.293 153.65 64.381 L 153.184 65.17 C 151.221 68.513 149.205 72.485 147.224 77.197 L 146.887 78.005 C 145.53 81.296 144.194 84.949 142.906 88.979 L 142.634 89.831 C 141.65 92.962 140.695 96.31 139.783 99.916 C 139.645 100.465 139.542 100.99 139.414 101.532 L 139.216 102.402 C 138.404 105.978 137.814 109.403 137.429 112.656 L 137.309 113.567 C 136.812 118.137 136.699 122.355 136.834 126.213 L 136.877 127.082 C 137.137 132.758 137.925 137.61 138.865 141.508 L 139.087 142.384 C 139.989 145.919 140.775 148.257 142.195 151.985 C 145.087 159.579 146.988 179.725 147.35 190.266 C 147.58 196.967 147.782 195.738 147.793 197.965 C 147.818 203.188 129.606 199.817 115.603 191.591 C 104.912 185.31 97.433 175.086 95.894 173.358 C 82.065 159.412 74.455 141.008 74.455 121.287 C 74.455 111.288 76.458 101.752 80.068 93.043 M 213.242 85.47 C 213.483 85.907 213.722 86.344 213.956 86.786 C 214.247 87.334 214.533 87.884 214.81 88.44 C 215.19 89.205 215.553 89.978 215.908 90.754 C 216.13 91.244 216.347 91.737 216.559 92.233 C 216.922 93.081 217.271 93.933 217.603 94.792 C 217.769 95.223 217.926 95.657 218.084 96.092 C 218.359 96.852 218.623 97.617 218.874 98.386 C 219.006 98.79 219.142 99.192 219.268 99.6 C 219.613 100.725 219.936 101.856 220.226 102.995 C 220.395 103.656 220.544 104.325 220.695 104.995 C 220.824 105.57 220.949 106.147 221.065 106.726 C 221.17 107.254 221.273 107.782 221.37 108.313 C 221.818 110.886 222.145 113.493 222.323 116.135 C 222.333 116.253 222.34 116.373 222.346 116.491 C 222.434 117.873 222.489 119.261 222.5 120.658 L 222.508 121.642 C 222.427 138.901 216.411 155.045 206.106 167.813 C 206.056 167.855 205.999 167.886 205.956 167.938 C 205.911 167.992 205.893 168.055 205.862 168.114 C 197.588 178.261 186.592 186.238 173.704 190.9 C 174.959 188.965 150.39 204.096 149.599 197.304 C 147.855 182.328 147.588 165.019 143.305 151.136 C 141.647 146.762 141.46 145.985 140.428 141.618 L 140.216 140.736 C 139.342 137.007 138.598 132.444 138.351 127.082 L 138.328 126.213 C 138.199 122.567 138.297 118.589 138.74 114.282 L 138.853 113.368 C 139.243 109.908 139.866 106.246 140.751 102.402 L 140.948 101.532 C 141.05 101.111 141.124 100.707 141.232 100.281 C 142.17 96.572 143.157 93.135 144.174 89.933 L 144.452 89.081 C 145.675 85.303 146.943 81.863 148.229 78.751 L 148.568 77.946 C 150.642 73.029 152.755 68.926 154.797 65.517 L 155.267 64.728 C 157.711 60.757 160.038 57.777 162.064 55.557 L 162.685 54.885 C 165.39 52.038 167.483 50.607 168.462 50.018 C 187.673 55.411 203.742 68.375 213.242 85.47"/>
    <path stroke="black" stroke-width="1" fill="white" d="M131.188,201.801c21.389,4.157,40.92-3.743,43.622-17.646   c2.703-13.904-12.446-28.546-33.835-32.706c-21.389-4.156-40.919,3.745-43.622,17.649   C94.649,183.001,109.798,197.643,131.188,201.801"/>
    <path stroke="darkblue" stroke-width="1" fill="blue" d="M 135.284 181.461 C 136.281 181.494 137.248 181.063 138.285 180.398 C 140.729 178.83 144.844 176.021 147.224 174.228 C 149.661 172.393 148.936 170.338 144.814 169.179 C 142.827 168.6 139.774 167.9 137.093 167.41 C 133.702 166.826 131.434 166.495 129.657 166.227 C 125.446 165.591 123.579 167.967 125.313 170.471 C 127.091 173.04 129.734 176.923 131.503 179.379 C 132.124 180.242 133.034 180.769 133.825 181.132 z"/>
    <path stroke="black" stroke-width="1" fill="black" d="M113.656,129.405 c-5.537,0-10.026,4.489-10.026,10.026 s4.489,10.026,10.026,10.026    s10.025-4.489,10.025-10.026S119.193,129.405,113.656,129.405"/>
    <path stroke="black" stroke-width="1" fill="black" d="M170.882,138.831c-5.537,0-10.026,4.489-10.026,10.025c0,5.537,4.489,10.027,10.026,10.027c5.536,0,10.022-4.49,10.022-10.027   C180.904,143.32,176.418,138.831,170.882,138.831"/>
    <path fill="none" stroke="black" stroke-width="1" stroke-linecap="round" d="M157.852,183.721   c-12.902,11.533-32.123,11.693-43.789-5.484"/>
  </g>
</svg>