<svg xmlns="http://www.w3.org/2000/svg" xmlns:xlink="http://www.w3.org/1999/xlink" version="1.1" id="Layer_1" x="0px" y="0px" width="299px" height="354px" viewBox="0 0 299 354" enable-background="new 0 0 299 354" xml:space="preserve">
<g>


    <path fill="none" stroke="#5F3A17" stroke-width="1"   d="M148.697,221.486c-37.853,0.363-117.569,7.519-118.37,7.591c-0.471,0.042-0.934-0.141-1.25-0.491   c-0.316-0.352-0.448-0.831-0.356-1.294c0.154-0.779,15.421-78.254,16.403-114.512C46.104,76.61,28.914,9.574,28.74,8.902   c-0.131-0.509,0.013-1.048,0.379-1.423c0.367-0.375,0.903-0.533,1.414-0.413c0.597,0.139,60.369,13.945,118.201,15.91   c57.757,1.965,121.468-15.715,122.104-15.893c0.488-0.138,1.012-0.018,1.395,0.315c0.381,0.334,0.568,0.838,0.497,1.339   c-0.122,0.86-12.185,86.474-11.693,129.478c0.491,42.948,11.553,88.554,11.665,89.01c0.115,0.472-0.005,0.97-0.322,1.337   c-0.316,0.368-0.793,0.56-1.275,0.514C270.261,228.997,186.531,221.124,148.697,221.486z"/>


</g>
</svg>
